<svg width="186" height="100" viewBox="0 0 186 100" fill="none" xmlns="http://www.w3.org/2000/svg">
<g id="developer_guide">
<mask id="mask0_4_49" style="mask-type:alpha" maskUnits="userSpaceOnUse" x="0" y="-10" width="200" height="200">
<rect id="Bounding box" y="-10" width="200" height="200" fill="#D9D9D9"/>
</mask>
<g mask="url(#mask0_4_49)">
<path id="developer_guide_2" d="M41.6667 165C37.0833 165 33.1597 163.368 29.8958 160.104C26.6319 156.84 25 152.917 25 148.333V31.6667C25 27.0833 26.6319 23.1597 29.8958 19.8958C33.1597 16.6319 37.0833 15 41.6667 15H158.333C162.917 15 166.84 16.6319 170.104 19.8958C173.368 23.1597 175 27.0833 175 31.6667V148.333C175 152.917 173.368 156.84 170.104 160.104C166.84 163.368 162.917 165 158.333 165H41.6667ZM41.6667 31.6667V148.333H158.333V31.6667H141.667V90L120.833 77.5L100 90V31.6667H41.6667Z" fill="#E3E7D8" fill-opacity="0.5"/>
</g>
</g>
</svg>
