<svg width="100" height="70" viewBox="0 0 100 70" fill="none" xmlns="http://www.w3.org/2000/svg">
<g id="flatware">
<mask id="mask0_4_55" style="mask-type:alpha" maskUnits="userSpaceOnUse" x="0" y="0" width="100" height="100">
<rect id="Bounding box" width="100" height="100" fill="#D9D9D9"/>
</mask>
<g mask="url(#mask0_4_55)">
<path id="flatware_2" d="M20.8333 87.5V45.8333C18.5417 45.8333 16.5799 45.0174 14.9479 43.3854C13.316 41.7535 12.5 39.7917 12.5 37.5V15.4167C12.5 14.5833 12.7778 13.8889 13.3333 13.3333C13.8889 12.7778 14.5833 12.5 15.4167 12.5C16.25 12.5 16.9444 12.7778 17.5 13.3333C18.0556 13.8889 18.3333 14.5833 18.3333 15.4167V29.1667H22.0833V15.4167C22.0833 14.5833 22.3611 13.8889 22.9167 13.3333C23.4722 12.7778 24.1667 12.5 25 12.5C25.8333 12.5 26.5278 12.7778 27.0833 13.3333C27.6389 13.8889 27.9167 14.5833 27.9167 15.4167V29.1667H31.6667V15.4167C31.6667 14.5833 31.9444 13.8889 32.5 13.3333C33.0556 12.7778 33.75 12.5 34.5833 12.5C35.4167 12.5 36.1111 12.7778 36.6667 13.3333C37.2222 13.8889 37.5 14.5833 37.5 15.4167V37.5C37.5 39.7917 36.684 41.7535 35.0521 43.3854C33.4201 45.0174 31.4583 45.8333 29.1667 45.8333V87.5H20.8333ZM50 87.5V45.4167C47.0833 44.0278 44.9653 41.8576 43.6458 38.9062C42.3264 35.9549 41.6667 32.8472 41.6667 29.5833C41.6667 25.2083 42.7604 21.2674 44.9479 17.7604C47.1354 14.2535 50.2083 12.5 54.1667 12.5C58.125 12.5 61.1979 14.2535 63.3854 17.7604C65.5729 21.2674 66.6667 25.2083 66.6667 29.5833C66.6667 32.8472 66.0069 35.9549 64.6875 38.9062C63.3681 41.8576 61.25 44.0278 58.3333 45.4167V87.5H50ZM70.8333 87.5V12.5C75.4167 12.5 79.3403 14.1319 82.6042 17.3958C85.8681 20.6597 87.5 24.5833 87.5 29.1667V54.1667H79.1667V87.5H70.8333Z" fill="#E3E7D8" fill-opacity="0.5"/>
</g>
</g>
</svg>
