<svg width="186" height="100" viewBox="0 0 186 100" fill="none" xmlns="http://www.w3.org/2000/svg">
<g id="house">
<mask id="mask0_4_80" style="mask-type:alpha" maskUnits="userSpaceOnUse" x="0" y="-10" width="200" height="200">
<rect id="Bounding box" y="-10" width="200" height="200" fill="#D9D9D9"/>
</mask>
<g mask="url(#mask0_4_80)">
<path id="house_2" d="M41.6666 156.667V80.4167L18.3333 98.3333L8.33331 85L100 15L133.333 40.4167V23.3333H158.333V59.5833L191.667 85L181.667 98.3333L158.333 80.4167V156.667H108.333V106.667H91.6666V156.667H41.6666ZM58.3333 140H75V90H125V140H141.667V67.7083L100 36.0417L58.3333 67.7083V140ZM83.3333 73.5417H116.667C116.667 69.0972 115 65.4514 111.667 62.6042C108.333 59.757 104.444 58.3333 100 58.3333C95.5555 58.3333 91.6666 59.757 88.3333 62.6042C85 65.4514 83.3333 69.0972 83.3333 73.5417Z" fill="#E3E7D8" fill-opacity="0.5"/>
</g>
</g>
</svg>
