<svg width="112" height="82" viewBox="0 0 112 82" fill="none" xmlns="http://www.w3.org/2000/svg">
<g id="local_activity">
<mask id="mask0_4_67" style="mask-type:alpha" maskUnits="userSpaceOnUse" x="0" y="0" width="124" height="124">
<rect id="Bounding box" x="26.6447" y="0.762758" width="100" height="100" transform="rotate(15 26.6447 0.762758)" fill="#D9D9D9"/>
</mask>
<g mask="url(#mask0_4_67)">
<path id="local_activity_2" d="M46.4172 75.0792L59.951 69.6469L68.7543 81.0644L68.1949 66.2481L81.8366 60.4134L68.1526 56.7467L67.3921 41.8765L59.2983 54.3742L45.6144 50.7076L54.3097 62.5276L46.4172 75.0792ZM21.1752 85.5702C18.9616 84.9771 17.2778 83.6812 16.1239 81.6825C14.9699 79.6837 14.6895 77.5776 15.2826 75.364L18.9223 61.7807C19.12 61.0428 19.5255 60.4685 20.1388 60.0577C20.7522 59.6469 21.4457 59.4732 22.2195 59.5368C23.9732 59.4315 25.5586 58.8139 26.9758 57.6838C28.3929 56.5538 29.3352 55.1167 29.8025 53.3727C30.2698 51.6287 30.1723 49.913 29.51 48.2258C28.8478 46.5386 27.7836 45.211 26.3175 44.243C25.6156 43.9111 25.1018 43.4139 24.776 42.7515C24.4502 42.0891 24.3862 41.3889 24.5839 40.6511L28.2236 27.0677C28.8167 24.8541 30.1126 23.1704 32.1113 22.0164C34.11 20.8625 36.2162 20.582 38.4298 21.1752L102.825 38.4298C105.038 39.0229 106.722 40.3188 107.876 42.3175C109.03 44.3163 109.311 46.4224 108.717 48.636L105.078 62.2193C104.88 62.9572 104.475 63.5315 103.861 63.9423C103.248 64.3531 102.554 64.5268 101.78 64.4632C100.027 64.5685 98.4414 65.1861 97.0242 66.3162C95.6071 67.4462 94.6648 68.8833 94.1975 70.6273C93.7302 72.3713 93.8277 74.087 94.49 75.7742C95.1522 77.4614 96.2164 78.789 97.6825 79.757C98.3844 80.0889 98.8983 80.5861 99.224 81.2485C99.5498 81.9109 99.6138 82.6111 99.4161 83.3489L95.7764 96.9323C95.1833 99.1459 93.8874 100.83 91.8887 101.984C89.89 103.138 87.7838 103.418 85.5702 102.825L21.1752 85.5702ZM23.332 77.5208L87.7271 94.7754L90.477 84.5125C88.3905 82.3717 86.9542 79.884 86.1681 77.0492C85.3819 74.2144 85.3753 71.3548 86.1482 68.4705C86.921 65.5861 88.3566 63.113 90.4548 61.0511C92.553 58.9891 95.0407 57.5528 97.9181 56.7421L100.668 46.4792L36.273 29.2246L33.523 39.4875C35.6095 41.6283 37.0458 44.116 37.8319 46.9508C38.6181 49.7856 38.6247 52.6452 37.8519 55.5295C37.079 58.4139 35.6435 60.887 33.5452 62.9489C31.447 65.0109 28.9593 66.4472 26.082 67.2579L23.332 77.5208Z" fill="#E3E7D8" fill-opacity="0.5"/>
</g>
</g>
</svg>
