<svg width="186" height="100" viewBox="0 0 186 100" fill="none" xmlns="http://www.w3.org/2000/svg">
<g id="privacy_tip">
<mask id="mask0_4_41" style="mask-type:alpha" maskUnits="userSpaceOnUse" x="0" y="-10" width="200" height="200">
<rect id="Bounding box" y="-10" width="200" height="200" fill="#D9D9D9"/>
</mask>
<g mask="url(#mask0_4_41)">
<path id="privacy_tip_2" d="M91.6667 131.667H108.333V81.6667H91.6667V131.667ZM100 65C102.361 65 104.34 64.2014 105.938 62.6042C107.535 61.0069 108.333 59.0278 108.333 56.6667C108.333 54.3056 107.535 52.3264 105.938 50.7292C104.34 49.1319 102.361 48.3333 100 48.3333C97.6389 48.3333 95.6597 49.1319 94.0625 50.7292C92.4653 52.3264 91.6667 54.3056 91.6667 56.6667C91.6667 59.0278 92.4653 61.0069 94.0625 62.6042C95.6597 64.2014 97.6389 65 100 65ZM100 173.333C80.6945 168.472 64.757 157.396 52.1875 140.104C39.6181 122.813 33.3333 103.611 33.3333 82.5V31.6667L100 6.66667L166.667 31.6667V82.5C166.667 103.611 160.382 122.813 147.813 140.104C135.243 157.396 119.306 168.472 100 173.333ZM100 155.833C114.444 151.25 126.389 142.083 135.833 128.333C145.278 114.583 150 99.3056 150 82.5V43.125L100 24.375L50 43.125V82.5C50 99.3056 54.7222 114.583 64.1667 128.333C73.6111 142.083 85.5556 151.25 100 155.833Z" fill="#E3E7D8" fill-opacity="0.5"/>
</g>
</g>
</svg>
